<?xml version="1.0" standalone="no"?>
<!DOCTYPE svg PUBLIC "-//W3C//DTD SVG 20010904//EN"
 "http://www.w3.org/TR/2001/REC-SVG-20010904/DTD/svg10.dtd">
<svg version="1.0" xmlns="http://www.w3.org/2000/svg"
 width="480.000000pt" height="480.000000pt" viewBox="0 0 480.000000 480.000000"
 preserveAspectRatio="xMidYMid meet">
<metadata>
Created by potrace 1.11, written by Peter Selinger 2001-2013
</metadata>
<g transform="translate(0.000000,480.000000) scale(0.100000,-0.100000)"
fill="#000000" stroke="none">
<path d="M2165 4789 c-254 -24 -579 -117 -819 -234 -232 -113 -504 -310 -672
-487 -626 -660 -832 -1573 -548 -2427 239 -718 797 -1276 1514 -1515 1022
-340 2128 31 2738 917 560 814 560 1900 0 2714 -497 722 -1337 1114 -2213
1032z m589 -950 c201 -41 367 -129 506 -269 182 -181 291 -402 345 -700 12
-65 19 -169 22 -332 l5 -238 -993 -2 -994 -3 2 -97 c6 -364 167 -646 448 -783
149 -73 235 -90 465 -89 164 0 212 4 300 23 185 40 409 120 592 212 l78 39 0
-225 0 -226 -33 -14 c-85 -35 -279 -97 -405 -129 -326 -82 -632 -94 -907 -37
-577 121 -938 551 -1006 1200 -15 142 -6 464 15 580 74 398 249 694 532 897
166 119 378 192 639 218 82 8 293 -5 389 -25z"/>
<path d="M2285 3466 c-300 -70 -511 -293 -594 -627 -11 -46 -23 -108 -27 -136
l-7 -53 763 0 762 0 -6 78 c-22 252 -89 430 -209 559 -71 76 -145 122 -252
159 -70 24 -98 28 -225 30 -99 3 -164 -1 -205 -10z"/>
</g>
</svg>
