<?xml version="1.0" standalone="no"?>
<!DOCTYPE svg PUBLIC "-//W3C//DTD SVG 20010904//EN"
 "http://www.w3.org/TR/2001/REC-SVG-20010904/DTD/svg10.dtd">
<svg version="1.0" xmlns="http://www.w3.org/2000/svg"
 width="256.000000pt" height="256.000000pt" viewBox="0 0 256.000000 256.000000"
 preserveAspectRatio="xMidYMid meet">
<metadata>
Created by potrace 1.11, written by Peter Selinger 2001-2013
</metadata>
<g transform="translate(0.000000,256.000000) scale(0.100000,-0.100000)"
fill="#000000" stroke="none">
<path d="M1140 2554 c-200 -26 -408 -102 -565 -207 -83 -56 -108 -77 -203
-170 -172 -170 -294 -396 -348 -647 -26 -119 -26 -381 0 -500 110 -512 494
-896 1006 -1006 119 -26 381 -26 500 0 513 111 895 493 1006 1006 26 119 26
381 0 500 -111 513 -494 896 -1006 1006 -73 15 -320 27 -390 18z m-443 -365
c34 -13 70 -44 94 -84 17 -28 19 -28 19 -7 0 22 2 22 120 22 139 0 250 -20
324 -57 69 -35 144 -115 190 -203 23 -44 140 -369 291 -814 l252 -741 -160 -3
c-89 -1 -166 -1 -173 2 -6 2 -68 173 -139 380 -70 207 -130 376 -134 376 -3 0
-72 -170 -152 -378 l-147 -377 -172 -3 c-136 -2 -171 0 -167 10 2 7 111 289
240 625 l236 613 -28 83 c-64 187 -103 217 -288 217 l-93 0 0 43 c-1 36 -2 39
-12 22 -68 -123 -242 -142 -331 -35 -82 97 -50 243 68 304 35 18 121 21 162 5z"/>
</g>
</svg>
