<?xml version="1.0" encoding="UTF-8" standalone="no"?><!DOCTYPE svg PUBLIC "-//W3C//DTD SVG 1.1//EN" "http://www.w3.org/Graphics/SVG/1.1/DTD/svg11.dtd"><!-- Generated by graphviz version 2.40.1 (20161225.0304)
 --><!-- Title: continuous_deployment Pages: 1 --><svg xmlns="http://www.w3.org/2000/svg" xmlns:xlink="http://www.w3.org/1999/xlink" width="628pt" height="161pt" viewBox="0.00 0.00 628.22 161.00">
<g id="graph0" class="graph" transform="scale(1 1) rotate(0) translate(4 157)">
<title>continuous_deployment</title>
<polygon fill="#ffffff" stroke="transparent" points="-4,4 -4,-157 624.2221,-157 624.2221,4 -4,4"/>
<g id="clust1" class="cluster">
<title>cluster_0</title>
<polygon fill="#eeeeee" stroke="#eeeeee" points="259.0492,-8 259.0492,-145 612.2221,-145 612.2221,-8 259.0492,-8"/>
<text text-anchor="start" x="389.3566" y="-129.4" font-family="Times,serif" font-weight="bold" font-size="14.00" fill="#000000">My £5/mo VPS</text>
</g>
<!-- webhook_listener -->
<g id="node1" class="node">
<title>webhook_listener</title>
<polygon fill="#ccffcc" stroke="#000000" points="337.6943,-74.4014 266.8333,-74.4014 266.8333,-15.5986 337.6943,-15.5986 337.6943,-74.4014"/>
<text text-anchor="middle" x="302.2638" y="-57.6" font-family="Times,serif" font-size="14.00" fill="#000000">Webhook</text>
<text text-anchor="middle" x="302.2638" y="-40.8" font-family="Times,serif" font-size="14.00" fill="#000000">listener</text>
<text text-anchor="middle" x="302.2638" y="-24" font-family="Times,serif" font-size="14.00" fill="#000000">(Go)</text>
</g>
<!-- scripts -->
<g id="node2" class="node">
<title>scripts</title>
<polygon fill="#ccffcc" stroke="#000000" points="474.387,-57.6019 413.1876,-57.6019 413.1876,-16.3981 474.387,-16.3981 474.387,-57.6019"/>
<text text-anchor="middle" x="443.7873" y="-41.2" font-family="Times,serif" font-size="14.00" fill="#000000">Scripts</text>
<text text-anchor="middle" x="443.7873" y="-24.4" font-family="Times,serif" font-size="14.00" fill="#000000">(Elvish)</text>
</g>
<!-- webhook_listener&#45;&gt;scripts -->
<g id="edge1" class="edge">
<title>webhook_listener-&gt;scripts</title>
<path fill="none" stroke="#000000" d="M337.6111,-43.0019C357.5021,-41.8775 382.4232,-40.4688 403.1219,-39.2987"/>
<polygon fill="#000000" stroke="#000000" points="403.4203,-42.7875 413.2068,-38.7286 403.0252,-35.7987 403.4203,-42.7875"/>
</g>
<!-- filesystem -->
<g id="node3" class="node">
<title>filesystem</title>
<path fill="#ffffff" stroke="#000000" d="M604.1647,-93.4821C604.1647,-96.3614 591.8903,-98.7004 576.7796,-98.7004 561.6689,-98.7004 549.3945,-96.3614 549.3945,-93.4821 549.3945,-93.4821 549.3945,-46.5179 549.3945,-46.5179 549.3945,-43.6386 561.6689,-41.2996 576.7796,-41.2996 591.8903,-41.2996 604.1647,-43.6386 604.1647,-46.5179 604.1647,-46.5179 604.1647,-93.4821 604.1647,-93.4821"/>
<path fill="none" stroke="#000000" d="M604.1647,-93.4821C604.1647,-90.6028 591.8903,-88.2639 576.7796,-88.2639 561.6689,-88.2639 549.3945,-90.6028 549.3945,-93.4821"/>
<text text-anchor="middle" x="576.7796" y="-74.2" font-family="Times,serif" font-size="14.00" fill="#000000">File-</text>
<text text-anchor="middle" x="576.7796" y="-57.4" font-family="Times,serif" font-size="14.00" fill="#000000">system</text>
</g>
<!-- scripts&#45;&gt;filesystem -->
<g id="edge2" class="edge">
<title>scripts-&gt;filesystem</title>
<path fill="none" stroke="#000000" d="M474.6327,-44.6538C493.9316,-49.4425 518.9187,-55.6427 539.3486,-60.7121"/>
<polygon fill="#000000" stroke="#000000" points="538.7153,-64.161 549.2639,-63.1724 540.4011,-57.367 538.7153,-64.161"/>
</g>
<!-- caddy -->
<g id="node4" class="node">
<title>caddy</title>
<polygon fill="#ffffff" stroke="#000000" points="470.7873,-112 416.7873,-112 416.7873,-76 470.7873,-76 470.7873,-112"/>
<text text-anchor="middle" x="443.7873" y="-89.8" font-family="Times,serif" font-size="14.00" fill="#000000">Caddy</text>
</g>
<!-- caddy&#45;&gt;filesystem -->
<g id="edge3" class="edge">
<title>caddy-&gt;filesystem</title>
<path fill="none" stroke="#000000" d="M471.0212,-89.0853C490.7023,-85.5336 517.5325,-80.6918 539.2437,-76.7738"/>
<polygon fill="#000000" stroke="#000000" points="539.9057,-80.211 549.1251,-74.9906 538.6625,-73.3222 539.9057,-80.211"/>
</g>
<!-- dev -->
<g id="node5" class="node">
<title>dev</title>
<ellipse fill="none" stroke="#000000" cx="29.265" cy="-38" rx="27.2467" ry="27.2467"/>
<text text-anchor="middle" x="29.265" y="-33.8" font-family="Times,serif" font-size="14.00" fill="#000000">Dev</text>
</g>
<!-- github -->
<g id="node7" class="node">
<title>github</title>
<polygon fill="none" stroke="#000000" points="178.9661,-60 120.9773,-60 120.9773,-24 178.9661,-24 178.9661,-60"/>
<text text-anchor="middle" x="149.9717" y="-37.8" font-family="Times,serif" font-size="14.00" fill="#000000">GitHub</text>
</g>
<!-- dev&#45;&gt;github -->
<g id="edge4" class="edge">
<title>dev-&gt;github</title>
<path fill="none" stroke="#000000" d="M56.6552,-38.9077C72.5872,-39.4356 92.9399,-40.1101 110.5696,-40.6943"/>
<polygon fill="#000000" stroke="#000000" points="110.4705,-44.1928 120.581,-41.026 110.7024,-37.1967 110.4705,-44.1928"/>
<text text-anchor="middle" x="89.7522" y="-45.2" font-family="Times,serif" font-size="14.00" fill="#000000">push</text>
</g>
<!-- user -->
<g id="node6" class="node">
<title>user</title>
<ellipse fill="none" stroke="#000000" cx="29.265" cy="-112" rx="29.0318" ry="29.0318"/>
<text text-anchor="middle" x="29.265" y="-107.8" font-family="Times,serif" font-size="14.00" fill="#000000">User</text>
</g>
<!-- user&#45;&gt;caddy -->
<g id="edge6" class="edge">
<title>user-&gt;caddy</title>
<path fill="none" stroke="#000000" d="M58.5344,-112C82.9793,-112 118.7472,-112 149.9717,-112 149.9717,-112 149.9717,-112 375.7375,-112 386.0944,-112 397.052,-110.0273 407.0774,-107.3879"/>
<polygon fill="#000000" stroke="#000000" points="408.1132,-110.7318 416.7354,-104.5748 406.1555,-104.0111 408.1132,-110.7318"/>
<text text-anchor="middle" x="302.2638" y="-116.2" font-family="Times,serif" font-size="14.00" fill="#000000">https://elv.sh</text>
</g>
<!-- github&#45;&gt;webhook_listener -->
<g id="edge5" class="edge">
<title>github-&gt;webhook_listener</title>
<path fill="none" stroke="#000000" d="M178.9752,-42.5713C200.9718,-43.0047 231.6216,-43.6084 256.8578,-44.1055"/>
<polygon fill="#000000" stroke="#000000" points="256.8766,-47.6065 266.9437,-44.3042 257.0146,-40.6079 256.8766,-47.6065"/>
<text text-anchor="middle" x="222.6295" y="-48.2" font-family="Times,serif" font-size="14.00" fill="#000000">webhook</text>
</g>
</g>
</svg>