<?xml version="1.0" encoding="UTF-8" standalone="no"?><!DOCTYPE svg PUBLIC "-//W3C//DTD SVG 1.1//EN" "http://www.w3.org/Graphics/SVG/1.1/DTD/svg11.dtd"><!-- Generated by graphviz version 2.40.1 (20161225.0304)
 --><!-- Title: optree Pages: 1 --><svg xmlns="http://www.w3.org/2000/svg" xmlns:xlink="http://www.w3.org/1999/xlink" width="417pt" height="236pt" viewBox="0.00 0.00 416.95 235.60">
<g id="graph0" class="graph" transform="scale(1 1) rotate(0) translate(4 231.6)">
<title>optree</title>
<polygon fill="#ffffff" stroke="transparent" points="-4,4 -4,-231.6 412.9477,-231.6 412.9477,4 -4,4"/>
<!-- Pipeline -->
<g id="node1" class="node">
<title>Pipeline</title>
<polygon fill="none" stroke="#000000" points="246.5799,-227.6 168.1641,-227.6 168.1641,-191.6 246.5799,-191.6 246.5799,-227.6"/>
<text text-anchor="middle" x="207.372" y="-205.4" font-family="Times,serif" font-size="14.00" fill="#000000">pipelineOp</text>
</g>
<!-- Form echo -->
<g id="node2" class="node">
<title>Form echo</title>
<polygon fill="none" stroke="#000000" points="199.6912,-138.8 139.0528,-138.8 139.0528,-102.8 199.6912,-102.8 199.6912,-138.8"/>
<text text-anchor="middle" x="169.372" y="-116.6" font-family="Times,serif" font-size="14.00" fill="#000000">formOp</text>
</g>
<!-- Pipeline&#45;&gt;Form echo -->
<g id="edge1" class="edge">
<title>Pipeline-&gt;Form echo</title>
<path fill="none" stroke="#000000" d="M196.9841,-191.5558C193.917,-185.8975 190.6777,-179.5692 188.0382,-173.6 183.084,-162.3959 178.4847,-149.4301 175.0912,-139.151"/>
<text text-anchor="middle" x="203.5389" y="-161" font-family="Times,serif" font-size="14.00" fill="#000000">Form</text>
</g>
<!-- Form wc -->
<g id="node3" class="node">
<title>Form wc</title>
<polygon fill="none" stroke="#000000" points="314.6912,-138.8 254.0528,-138.8 254.0528,-102.8 314.6912,-102.8 314.6912,-138.8"/>
<text text-anchor="middle" x="284.372" y="-116.6" font-family="Times,serif" font-size="14.00" fill="#000000">formOp</text>
</g>
<!-- Pipeline&#45;&gt;Form wc -->
<g id="edge4" class="edge">
<title>Pipeline-&gt;Form wc</title>
<path fill="none" stroke="#000000" d="M223.3264,-191.2006C236.6297,-175.8587 255.4779,-154.122 268.7014,-138.872"/>
<text text-anchor="middle" x="268.5389" y="-161" font-family="Times,serif" font-size="14.00" fill="#000000">Form</text>
</g>
<!-- Expr echo -->
<g id="node4" class="node">
<title>Expr echo</title>
<polygon fill="none" stroke="#000000" points="102.6163,-50 .1277,-50 .1277,0 102.6163,0 102.6163,-50"/>
<text text-anchor="start" x="20.2759" y="-34.4" font-family="Times,serif" font-weight="bold" font-size="14.00" fill="#000000">variableOp</text>
<text text-anchor="start" x="10.8693" y="-20.4" font-family="Times,serif" font-size="14.00" fill="#000000">Scope=</text>
<text text-anchor="start" x="52.9757" y="-20.4" font-family="Times,serif" font-weight="bold" font-size="14.00" fill="#000000">Builtin</text>
<text text-anchor="start" x="8" y="-6.4" font-family="Times,serif" font-size="14.00" fill="#000000">Name=</text>
<text text-anchor="start" x="49.321" y="-6.4" font-family="Times,serif" font-weight="bold" font-size="14.00" fill="#000000">"echo~"</text>
</g>
<!-- Form echo&#45;&gt;Expr echo -->
<g id="edge2" class="edge">
<title>Form echo-&gt;Expr echo</title>
<path fill="none" stroke="#000000" d="M147.1771,-102.7808C128.8845,-87.9297 102.7329,-66.6981 82.3727,-50.1684"/>
<text text-anchor="middle" x="140.1399" y="-72.2" font-family="Times,serif" font-size="14.00" fill="#000000">Head</text>
</g>
<!-- Expr $pid -->
<g id="node5" class="node">
<title>Expr $pid</title>
<polygon fill="none" stroke="#000000" points="217.8774,-50 120.8666,-50 120.8666,0 217.8774,0 217.8774,-50"/>
<text text-anchor="start" x="138.2759" y="-34.4" font-family="Times,serif" font-size="14.00" fill="#000000">variableOp</text>
<text text-anchor="start" x="128.8693" y="-20.4" font-family="Times,serif" font-size="14.00" fill="#000000">Scope=</text>
<text text-anchor="start" x="170.9757" y="-20.4" font-family="Times,serif" font-weight="bold" font-size="14.00" fill="#000000">Builtin</text>
<text text-anchor="start" x="134.0556" y="-6.4" font-family="Times,serif" font-size="14.00" fill="#000000">Name="pid"</text>
</g>
<!-- Form echo&#45;&gt;Expr $pid -->
<g id="edge3" class="edge">
<title>Form echo-&gt;Expr $pid</title>
<path fill="none" stroke="#000000" d="M169.372,-102.7808C169.372,-87.9297 169.372,-66.6981 169.372,-50.1684"/>
<text text-anchor="middle" x="180.2556" y="-72.2" font-family="Times,serif" font-size="14.00" fill="#000000">Arg</text>
</g>
<!-- Expr wc -->
<g id="node6" class="node">
<title>Expr wc</title>
<polygon fill="none" stroke="#000000" points="409.0235,-43 235.7205,-43 235.7205,-7 409.0235,-7 409.0235,-43"/>
<text text-anchor="start" x="297.4926" y="-27.4" font-family="Times,serif" font-weight="bold" font-size="14.00" fill="#000000">literalOp</text>
<text text-anchor="start" x="243.7963" y="-13.4" font-family="Times,serif" font-size="14.00" fill="#000000">Value=</text>
<text text-anchor="start" x="285.1173" y="-13.4" font-family="Times,serif" font-weight="bold" font-size="14.00" fill="#000000">ExternalCmd{"wc"}</text>
</g>
<!-- Form wc&#45;&gt;Expr wc -->
<g id="edge5" class="edge">
<title>Form wc-&gt;Expr wc</title>
<path fill="none" stroke="#000000" d="M291.5195,-102.7808C298.2703,-85.7616 308.3449,-60.3631 315.1273,-43.2642"/>
<text text-anchor="middle" x="319.1399" y="-72.2" font-family="Times,serif" font-size="14.00" fill="#000000">Head</text>
</g>
</g>
</svg>