<?xml version="1.0" encoding="UTF-8" standalone="no"?><!DOCTYPE svg PUBLIC "-//W3C//DTD SVG 1.1//EN" "http://www.w3.org/Graphics/SVG/1.1/DTD/svg11.dtd"><!-- Generated by graphviz version 2.40.1 (20161225.0304)
 --><!-- Title: parser Pages: 1 --><svg xmlns="http://www.w3.org/2000/svg" xmlns:xlink="http://www.w3.org/1999/xlink" width="427pt" height="66pt" viewBox="0.00 0.00 427.00 66.00">
<g id="graph0" class="graph" transform="scale(1 1) rotate(0) translate(4 62)">
<title>parser</title>
<polygon fill="#ffffff" stroke="transparent" points="-4,4 -4,-62 423,-62 423,4 -4,4"/>
<!-- a -->
<g id="node1" class="node">
<title>a</title>
<polygon fill="none" stroke="#000000" points="29,-58 0,-58 0,-29 29,-29 29,-58"/>
<text text-anchor="middle" x="14.5" y="-39.3" font-family="monospace" font-size="14.00" fill="#000000">e</text>
</g>
<!-- b -->
<g id="node2" class="node">
<title>b</title>
<polygon fill="none" stroke="#000000" points="59,-58 30,-58 30,-29 59,-29 59,-58"/>
<text text-anchor="middle" x="44.5" y="-39.3" font-family="monospace" font-size="14.00" fill="#000000">c</text>
</g>
<!-- c -->
<g id="node3" class="node">
<title>c</title>
<polygon fill="none" stroke="#000000" points="89,-58 60,-58 60,-29 89,-29 89,-58"/>
<text text-anchor="middle" x="74.5" y="-39.3" font-family="monospace" font-size="14.00" fill="#000000">h</text>
</g>
<!-- d -->
<g id="node4" class="node">
<title>d</title>
<polygon fill="none" stroke="#000000" points="119,-58 90,-58 90,-29 119,-29 119,-58"/>
<text text-anchor="middle" x="104.5" y="-39.3" font-family="monospace" font-size="14.00" fill="#000000">o</text>
</g>
<!-- e -->
<g id="node5" class="node">
<title>e</title>
<polygon fill="none" stroke="#000000" points="149,-58 120,-58 120,-29 149,-29 149,-58"/>
<text text-anchor="middle" x="134.5" y="-39.3" font-family="monospace" font-size="14.00" fill="#000000"> </text>
</g>
<!-- f -->
<g id="node6" class="node">
<title>f</title>
<polygon fill="none" stroke="#000000" points="179,-58 150,-58 150,-29 179,-29 179,-58"/>
<text text-anchor="middle" x="164.5" y="-39.3" font-family="monospace" font-size="14.00" fill="#000000">$</text>
</g>
<!-- g -->
<g id="node7" class="node">
<title>g</title>
<polygon fill="none" stroke="#000000" points="209,-58 180,-58 180,-29 209,-29 209,-58"/>
<text text-anchor="middle" x="194.5" y="-39.3" font-family="monospace" font-size="14.00" fill="#000000">p</text>
</g>
<!-- h -->
<g id="node8" class="node">
<title>h</title>
<polygon fill="none" stroke="#000000" points="239,-58 210,-58 210,-29 239,-29 239,-58"/>
<text text-anchor="middle" x="224.5" y="-39.3" font-family="monospace" font-size="14.00" fill="#000000">i</text>
</g>
<!-- i -->
<g id="node9" class="node">
<title>i</title>
<polygon fill="none" stroke="#000000" points="269,-58 240,-58 240,-29 269,-29 269,-58"/>
<text text-anchor="middle" x="254.5" y="-39.3" font-family="monospace" font-size="14.00" fill="#000000">d</text>
</g>
<!-- j -->
<g id="node10" class="node">
<title>j</title>
<polygon fill="none" stroke="#000000" points="299,-58 270,-58 270,-29 299,-29 299,-58"/>
<text text-anchor="middle" x="284.5" y="-39.3" font-family="monospace" font-size="14.00" fill="#000000"> </text>
</g>
<!-- k -->
<g id="node11" class="node">
<title>k</title>
<polygon fill="none" stroke="#000000" points="329,-58 300,-58 300,-29 329,-29 329,-58"/>
<text text-anchor="middle" x="314.5" y="-39.3" font-family="monospace" font-size="14.00" fill="#000000">|</text>
</g>
<!-- l -->
<g id="node12" class="node">
<title>l</title>
<polygon fill="none" stroke="#000000" points="359,-58 330,-58 330,-29 359,-29 359,-58"/>
<text text-anchor="middle" x="344.5" y="-39.3" font-family="monospace" font-size="14.00" fill="#000000"> </text>
</g>
<!-- m -->
<g id="node13" class="node">
<title>m</title>
<polygon fill="none" stroke="#000000" points="389,-58 360,-58 360,-29 389,-29 389,-58"/>
<text text-anchor="middle" x="374.5" y="-39.3" font-family="monospace" font-size="14.00" fill="#000000">w</text>
</g>
<!-- n -->
<g id="node14" class="node">
<title>n</title>
<polygon fill="none" stroke="#000000" points="419,-58 390,-58 390,-29 419,-29 419,-58"/>
<text text-anchor="middle" x="404.5" y="-39.3" font-family="monospace" font-size="14.00" fill="#000000">c</text>
</g>
<!-- next -->
<g id="node15" class="node">
<title>next</title>
<text text-anchor="middle" x="14.5" y=".7" font-family="Times,serif" font-size="14.00" fill="#000000">next</text>
</g>
<!-- next&#45;&gt;a -->
<g id="edge1" class="edge">
<title>next-&gt;a</title>
<path fill="none" stroke="#000000" d="M14.5,-7.0322C14.5,-9.819 14.5,-13.9807 14.5,-18.507"/>
<polygon fill="#000000" stroke="#000000" points="11.0001,-18.6054 14.5,-28.6055 18.0001,-18.6055 11.0001,-18.6054"/>
</g>
</g>
</svg>