<?xml version="1.0" encoding="UTF-8" standalone="no"?><!DOCTYPE svg PUBLIC "-//W3C//DTD SVG 1.1//EN" "http://www.w3.org/Graphics/SVG/1.1/DTD/svg11.dtd"><!-- Generated by graphviz version 2.40.1 (20161225.0304)
 --><!-- Title: AST Pages: 1 --><svg xmlns="http://www.w3.org/2000/svg" xmlns:xlink="http://www.w3.org/1999/xlink" width="360pt" height="244pt" viewBox="0.00 0.00 359.86 244.00">
<g id="graph0" class="graph" transform="scale(1 1) rotate(0) translate(4 240)">
<title>AST</title>
<polygon fill="#ffffff" stroke="transparent" points="-4,4 -4,-240 355.8554,-240 355.8554,4 -4,4"/>
<!-- Form echo -->
<g id="node1" class="node">
<title>Form echo</title>
<polygon fill="none" stroke="#000000" points="202.9277,-147.2 148.9277,-147.2 148.9277,-111.2 202.9277,-111.2 202.9277,-147.2"/>
<text text-anchor="middle" x="175.9277" y="-125" font-family="Times,serif" font-size="14.00" fill="#000000">Form</text>
</g>
<!-- Expr echo -->
<g id="node3" class="node">
<title>Expr echo</title>
<polygon fill="none" stroke="#000000" points="107.7832,-58.6014 .0722,-58.6014 .0722,.2014 107.7832,.2014 107.7832,-58.6014"/>
<text text-anchor="middle" x="53.9277" y="-41.8" font-family="Times,serif" font-size="14.00" fill="#000000">Expr</text>
<text text-anchor="middle" x="53.9277" y="-25" font-family="Times,serif" font-size="14.00" fill="#000000">Type=Bareword</text>
<text text-anchor="middle" x="53.9277" y="-8.2" font-family="Times,serif" font-size="14.00" fill="#000000">Value="echo"</text>
</g>
<!-- Form echo&#45;&gt;Expr echo -->
<g id="edge2" class="edge">
<title>Form echo-&gt;Expr echo</title>
<path fill="none" stroke="#000000" d="M153.8344,-111.0908C135.9812,-96.457 110.4969,-75.5682 89.7356,-58.5508"/>
<text text-anchor="middle" x="144.6956" y="-80.6" font-family="Times,serif" font-size="14.00" fill="#000000">Head</text>
</g>
<!-- Expr $pid -->
<g id="node4" class="node">
<title>Expr $pid</title>
<polygon fill="none" stroke="#000000" points="226.2818,-58.6014 125.5736,-58.6014 125.5736,.2014 226.2818,.2014 226.2818,-58.6014"/>
<text text-anchor="middle" x="175.9277" y="-41.8" font-family="Times,serif" font-size="14.00" fill="#000000">Expr</text>
<text text-anchor="middle" x="175.9277" y="-25" font-family="Times,serif" font-size="14.00" fill="#000000">Type=Variable</text>
<text text-anchor="middle" x="175.9277" y="-8.2" font-family="Times,serif" font-size="14.00" fill="#000000">Value="pid"</text>
</g>
<!-- Form echo&#45;&gt;Expr $pid -->
<g id="edge3" class="edge">
<title>Form echo-&gt;Expr $pid</title>
<path fill="none" stroke="#000000" d="M175.9277,-110.8585C175.9277,-96.1983 175.9277,-75.3699 175.9277,-58.4182"/>
<text text-anchor="middle" x="186.8113" y="-80.6" font-family="Times,serif" font-size="14.00" fill="#000000">Arg</text>
</g>
<!-- Form wc -->
<g id="node2" class="node">
<title>Form wc</title>
<polygon fill="none" stroke="#000000" points="299.9277,-147.2 245.9277,-147.2 245.9277,-111.2 299.9277,-111.2 299.9277,-147.2"/>
<text text-anchor="middle" x="272.9277" y="-125" font-family="Times,serif" font-size="14.00" fill="#000000">Form</text>
</g>
<!-- Expr wc -->
<g id="node5" class="node">
<title>Expr wc</title>
<polygon fill="none" stroke="#000000" points="351.7832,-58.6014 244.0722,-58.6014 244.0722,.2014 351.7832,.2014 351.7832,-58.6014"/>
<text text-anchor="middle" x="297.9277" y="-41.8" font-family="Times,serif" font-size="14.00" fill="#000000">Expr</text>
<text text-anchor="middle" x="297.9277" y="-25" font-family="Times,serif" font-size="14.00" fill="#000000">Type=Bareword</text>
<text text-anchor="middle" x="297.9277" y="-8.2" font-family="Times,serif" font-size="14.00" fill="#000000">Value="wc"</text>
</g>
<!-- Form wc&#45;&gt;Expr wc -->
<g id="edge5" class="edge">
<title>Form wc-&gt;Expr wc</title>
<path fill="none" stroke="#000000" d="M277.5131,-110.8585C281.1781,-96.1983 286.3852,-75.3699 290.6232,-58.4182"/>
<text text-anchor="middle" x="299.6956" y="-80.6" font-family="Times,serif" font-size="14.00" fill="#000000">Head</text>
</g>
<!-- Pipeline -->
<g id="node6" class="node">
<title>Pipeline</title>
<polygon fill="none" stroke="#000000" points="241.8114,-236 180.044,-236 180.044,-200 241.8114,-200 241.8114,-236"/>
<text text-anchor="middle" x="210.9277" y="-213.8" font-family="Times,serif" font-size="14.00" fill="#000000">Pipeline</text>
</g>
<!-- Pipeline&#45;&gt;Form echo -->
<g id="edge1" class="edge">
<title>Pipeline-&gt;Form echo</title>
<path fill="none" stroke="#000000" d="M203.6757,-199.6006C197.6288,-184.2587 189.0614,-162.522 183.0507,-147.272"/>
<text text-anchor="middle" x="212.0946" y="-169.4" font-family="Times,serif" font-size="14.00" fill="#000000">Form</text>
</g>
<!-- Pipeline&#45;&gt;Form wc -->
<g id="edge4" class="edge">
<title>Pipeline-&gt;Form wc</title>
<path fill="none" stroke="#000000" d="M223.7741,-199.6006C234.4858,-184.2587 249.6623,-162.522 260.3099,-147.272"/>
<text text-anchor="middle" x="263.0946" y="-169.4" font-family="Times,serif" font-size="14.00" fill="#000000">Form</text>
</g>
</g>
</svg>